<svg xmlns="http://www.w3.org/2000/svg" width="42" height="42" fill="none"><path fill="#C52929" d="M.015 21.734v-1.468C.402 9.008 9.651 0 21.003 0c11.597 0 21 9.402 21 21s-9.403 21-21 21C9.65 42 .403 32.992.015 21.734"/><path fill="#fff" fill-rule="evenodd" d="M11.74 18.246v-7.143H8.36v18.509h3.376l.004-6.523q-.005-1.641.305-2.481.303-.839.97-1.258c.436-.277.94-.418 1.498-.418q.734 0 1.22.329.486.32.679.874.19.55.189 2.598v6.878h3.38v-7.638q0-1.752-.174-2.584a4.1 4.1 0 0 0-.65-1.523q-.473-.685-1.413-1.125c-.625-.296-1.322-.444-2.101-.444-1.512 0-2.816.653-3.903 1.949m13.302 0v-7.143h-3.376v18.509h3.376v-6.523q.001-1.641.305-2.481.308-.839.969-1.258c.437-.277.94-.418 1.499-.418q.735 0 1.22.329.487.32.679.874.194.55.193 2.598v6.878h3.375v-7.638q0-1.752-.174-2.584a4.1 4.1 0 0 0-.65-1.523q-.472-.685-1.408-1.125-.942-.444-2.105-.444c-1.512 0-2.815.653-3.903 1.949" clip-rule="evenodd"/></svg>