<svg xmlns="http://www.w3.org/2000/svg" width="30" height="30" fill="none"><path stroke="#fff" stroke-linejoin="round" stroke-width="1.5" d="M12.5 17.806s-1.5-.51-1.5-3.064c-.826 0-.826-2.042 0-2.042 0-.342-1.5-4.084 1-3.573.5-2.043 6-2.043 6.5 0 .347 1.417-.5 3.322-.5 3.573.826 0 .826 2.043 0 2.043 0 2.552-1.5 3.063-1.5 3.063v2.552c2.477.949 4.93 1.733 6.186 2.63A11.83 11.83 0 0 0 26 14.743C26 8.256 20.852 3 14.5 3S3 8.257 3 14.743C3 17.962 4.27 20.877 6.325 23c1.33-.94 3.952-1.783 6.175-2.642z" clip-rule="evenodd"/><path stroke="#fff" stroke-linejoin="round" stroke-width="1.5" d="M6.5 23.14c2.039 1.846 4.867 2.99 7.995 2.99 3.132 0 5.965-1.148 8.005-3"/></svg>